<svg xmlns="http://www.w3.org/2000/svg" width="376" height="130" xmlns:v="https://vecta.io/nano"><path d="M269.693 54.665a36.11 36.11 0 0 1 8.557-.748 17.32 17.32 0 0 1 3.821.554c4.282 1.122 6.762 3.928 7.611 8.23a17.82 17.82 0 0 1 .313 3.449v18.621a5.78 5.78 0 0 1-.082 1.242 1.17 1.17 0 0 1-1.028.988 6.02 6.02 0 0 1-.827.06h-3.314c-.231 0-.462 0-.693-.045-.59-.007-1.09-.44-1.184-1.025-.077-.455-.109-.916-.097-1.377V67.803v-1.668c-.127-3.112-1.772-5.08-4.818-5.476-2.336-.311-4.709-.204-7.008.314a6.2 6.2 0 0 0-.789.254c-.276.078-.466.333-.462.621v1.107 21.419a8.58 8.58 0 0 1-.089 1.496 1.18 1.18 0 0 1-.394.874c-.249.222-.579.329-.91.293-1.489.045-2.979 0-4.424 0h-.142a1.24 1.24 0 0 1-1.177-1.167 7.93 7.93 0 0 1-.052-1.115V43.361v-.973c-.008-.357.127-.702.375-.958s.588-.401.943-.403h.134c1.43 0 2.86-.06 4.282 0 .953.045 1.288.449 1.415 1.399a9.96 9.96 0 0 1 .037 1.249v10.998-.007zm-52.757-1.025c1.526.065 3.033.366 4.468.89 3.232 1.08 5.571 3.912 6.032 7.302a17.51 17.51 0 0 1 .268 3.18l.007 8.469V83.2c.087 1.057-.575 2.03-1.586 2.334a24.42 24.42 0 0 1-5.213 1.421 42.4 42.4 0 0 1-8.259.554 23.65 23.65 0 0 1-5.593-.793 12.69 12.69 0 0 1-2.927-1.212c-1.96-1.095-3.379-2.96-3.917-5.147a12.02 12.02 0 0 1 .253-7.1c.822-2.394 2.554-4.363 4.818-5.476 2.021-1.031 4.25-1.586 6.517-1.623l7.045-.06c1.549 0 1.638.224 1.489-1.586 0-.322-.06-.643-.104-.965-.144-1.661-1.304-3.055-2.904-3.494-1.241-.368-2.537-.515-3.828-.434a34.95 34.95 0 0 0-7.909 1.152l-.134.037c-1.139.262-1.385.127-1.683-.98l-.745-3.097c-.186-.898-.045-1.122.827-1.451a22.33 22.33 0 0 1 3.865-1.032 39.62 39.62 0 0 1 9.212-.606zm2.852 18.023c-2.435 0-4.878-.082-7.313.067a7.16 7.16 0 0 0-2.398.599 4.31 4.31 0 0 0-2.07 1.773 4.76 4.76 0 0 0-.41 4.576c.657 1.494 2.033 2.544 3.642 2.778h.134c2.777.411 5.609.217 8.304-.569.588-.135.633-.224.633-.883v-3.741l.022.022v-4.018c0-.486-.112-.606-.544-.606z" fill="#00649f"/><path d="M135.744 53.7a14.37 14.37 0 0 1 4.699 1.07c2.754 1.093 4.779 3.501 5.392 6.412a15.24 15.24 0 0 1 .35 3.584v18.038c0 1.855-.246 2.2-1.966 2.888a25.56 25.56 0 0 1-6.576 1.496 40.85 40.85 0 0 1-6.628.292c-1.843-.05-3.674-.324-5.452-.815a14.04 14.04 0 0 1-2.19-.793 8.27 8.27 0 0 1-4.841-6.509c-.308-1.787-.227-3.62.238-5.372.721-2.729 2.592-5.005 5.124-6.232a15.19 15.19 0 0 1 6.114-1.586l4.148-.06h3.873c.976-.009.929-.138.871-1.556-.026-.46-.086-.918-.179-1.369a3.86 3.86 0 0 0-2.823-3.112 10.53 10.53 0 0 0-3.828-.449c-2.718.075-5.418.472-8.043 1.182-.178.047-.36.079-.544.097-.603.06-.901-.097-1.058-.651l-.901-3.629c-.156-.703 0-1.032.745-1.287a24.99 24.99 0 0 1 2.644-.793c3.551-.799 7.197-1.083 10.829-.845zm2.398 17.955l-6.904.022c-.46.023-.916.09-1.363.202-2.823.591-4.238 2.417-4.037 5.521a3.91 3.91 0 0 0 2.569 3.606 6.05 6.05 0 0 0 1.184.374 19.01 19.01 0 0 0 8.609-.479c.588-.127.678-.277.678-.875v-3.883l.007-3.741c0-.628-.134-.748-.745-.748z" fill="#f28230"/><path d="M244.782 53.895c2.102-.053 4.198.242 6.204.875 2.856.841 5.266 2.783 6.703 5.402.998 1.811.313 2.761-1.095 3.299l-2.83 1.115c-1.072.382-1.489.239-2.108-.688a4.53 4.53 0 0 1-.298-.471 5.96 5.96 0 0 0-3.969-2.776c-1.808-.403-3.681-.403-5.489 0-.403.093-.795.228-1.169.404a2.79 2.79 0 0 0-1.765 2.865c-.042 1.196.698 2.28 1.825 2.671a10.43 10.43 0 0 0 2.681.666l4.804.561c1.602.182 3.178.543 4.699 1.077l1.4.591c2.445 1.125 4.106 3.475 4.357 6.165a12.37 12.37 0 0 1-.134 4.414c-.585 2.562-2.244 4.744-4.55 5.985a14.35 14.35 0 0 1-5.213 1.706c-2.744.391-5.534.312-8.252-.232-1.407-.262-2.766-.739-4.029-1.414a10.59 10.59 0 0 1-4.714-5.087c-.909-1.983-.238-2.91 1.489-3.352l2.502-.748c1.259-.374 1.795-.202 2.309 1.032.735 1.797 2.366 3.065 4.282 3.329 2.131.425 4.329.382 6.442-.127a5.36 5.36 0 0 0 1.638-.748c1.802-1.137 1.862-4.392-.425-5.364a12.94 12.94 0 0 0-3.336-.845l-4.528-.554c-1.696-.218-3.361-.635-4.96-1.242-2.886-.944-4.952-3.5-5.28-6.531-.245-1.467-.209-2.968.104-4.422.512-2.438 2.056-4.531 4.23-5.731 1.373-.765 2.867-1.286 4.416-1.541 1.341-.224 2.7-.32 4.059-.284z" fill="#00649f"/><path d="M87 72.957V60.591a19.17 19.17 0 0 1 .171-2.349 3.43 3.43 0 0 1 2.368-2.993c.56-.216 1.142-.372 1.735-.464l3.433-.329a69.89 69.89 0 0 1 2.48-.18 28.63 28.63 0 0 1 8.937.748c.762.192 1.509.442 2.234.748 2.592 1.079 4.627 3.181 5.63 5.813.637 1.641 1.043 3.364 1.206 5.117.155 1.799.217 3.604.186 5.409v13.362a11.09 11.09 0 0 1-.082 1.145c-.06.628-.328.868-.983.928-.139.007-.278.007-.417 0h-4.394-.551c-.259-.002-.506-.11-.683-.299s-.27-.444-.255-.703a10.99 10.99 0 0 1 0-1.107V70.294c.052-1.437-.06-2.876-.335-4.287-.168-.816-.462-1.601-.871-2.327-.656-1.153-1.695-2.037-2.934-2.499a9.43 9.43 0 0 0-2.689-.613c-1.841-.12-3.688-.105-5.526.045a6.78 6.78 0 0 0-.946.172.5.5 0 0 0-.402.501v1.249 22.781a12.89 12.89 0 0 1-.089 1.496c-.047.332-.309.592-.64.636-.23.027-.461.04-.693.037h-4.446c-.233.019-.468.014-.7-.015-.335-.037-.603-.294-.655-.628-.063-.459-.093-.921-.089-1.384V72.957z" fill="#f28230"/><path d="M171.856 70.945a20.34 20.34 0 0 1 1.095-7.639 15.52 15.52 0 0 1 2.167-4.167c1.908-2.663 4.75-4.5 7.954-5.14 4.27-.898 8.715-.373 12.661 1.496 1.489.703 1.489.973.886 2.304-.38.845-.745 1.698-1.087 2.551-.112.254-.216.509-.35.748-.064.205-.212.372-.408.459a.74.74 0 0 1-.613-.003c-.529-.15-1.05-.344-1.571-.516-1.741-.616-3.569-.947-5.414-.98-2.797-.095-5.382 1.49-6.576 4.033a11.73 11.73 0 0 0-1.251 4.07c-.303 2.301-.225 4.637.231 6.913.088.406.202.806.343 1.197.839 2.852 3.423 4.827 6.382 4.878a17.8 17.8 0 0 0 7.596-1.264c.343-.135.678-.284 1.028-.397a.74.74 0 0 1 .6-.011c.193.081.342.24.413.437l1.787 4.055c.099.188.12.409.057.612a.8.8 0 0 1-.392.472c-.351.222-.717.419-1.095.591a19.62 19.62 0 0 1-5.69 1.601c-1.725.255-3.47.355-5.213.299a17.97 17.97 0 0 1-4.089-.628 11.73 11.73 0 0 1-7.79-6.733 19.96 19.96 0 0 1-1.616-6.883c-.089-.778-.045-1.571-.045-2.357z" fill="#00649f"/><path d="M153.588 70.346v-9.03l-.037-1.107c-.008-.191-.16-.344-.35-.352-.32 0-.64-.037-.968-.037h-3.039c-.745 0-1.005-.247-1.043-1.003v-2.633c-.002-.537.387-.996.916-1.077l2.681-.658 1.489-.314c.411 0 .745-.335.745-.748l.447-2.993.29-2.2c.027-.62.433-1.159 1.02-1.354l3.649-1.272a1.64 1.64 0 0 1 .276-.06c.812-.135 1.125.097 1.162.92v1.496 5.551c0 .621.119.748.745.748h4.975a7.52 7.52 0 0 1 1.236.082.79.79 0 0 1 .554.272c.14.162.209.375.191.589v2.087 1.496c0 .748-.223.913-.901.958h-1.11-4.297c-1.489 0-1.393 0-1.393 1.332v15.943 1.392c.186 1.811 1.132 2.701 2.979 2.806 1.288.071 2.58.019 3.858-.157l1.787-.187c.596-.03.804.135.901.636l.648 3.973c.104.748-.074 1.01-.804 1.212-.75.231-1.517.404-2.294.516-2.638.443-5.328.478-7.976.105l-.685-.12c-2.929-.487-5.171-2.884-5.474-5.85-.127-.822-.192-1.652-.194-2.484l.015-8.476z" fill="#f28230"/></svg>